<?xml version="1.0" standalone="no"?>
<!DOCTYPE svg PUBLIC "-//W3C//DTD SVG 20010904//EN"
 "http://www.w3.org/TR/2001/REC-SVG-20010904/DTD/svg10.dtd">
<svg version="1.0" xmlns="http://www.w3.org/2000/svg"
 width="942.000000pt" height="1280.000000pt" viewBox="0 0 942.000000 1280.000000"
 preserveAspectRatio="xMidYMid meet">
<metadata>
Created by potrace 1.15, written by Peter Selinger 2001-2017
</metadata>
<g transform="translate(0.000000,1280.000000) scale(0.100000,-0.100000)"
fill="#ff9800" stroke="none">
<path d="M1396 12779 c-22 -17 -66 -86 -66 -103 0 -2 10 -6 23 -10 12 -3 53
-26 91 -51 38 -25 71 -45 73 -45 3 0 3 40 1 89 -3 78 -6 93 -27 115 -30 31
-59 33 -95 5z"/>
<path d="M1295 12513 c-45 -209 -90 -287 -183 -313 -56 -15 -77 -13 -159 20
-114 46 -139 31 -205 -124 -38 -91 -49 -108 -112 -166 -38 -36 -91 -86 -118
-111 l-48 -46 0 -129 c0 -176 38 -403 88 -535 l10 -26 74 19 c40 11 146 24
235 30 89 6 167 14 173 18 8 5 -2 27 -29 65 -81 116 -132 292 -134 465 -2 169
46 282 148 345 154 96 331 -45 367 -293 9 -64 9 -85 0 -94 -23 -23 -43 15 -52
95 -10 88 -35 141 -84 185 -46 40 -98 55 -149 41 -53 -14 -120 -78 -148 -142
-21 -46 -24 -67 -24 -177 0 -103 4 -138 23 -200 41 -130 132 -270 177 -270 31
0 149 61 212 109 l53 40 67 -99 c78 -114 72 -114 165 -18 69 70 138 205 163
318 21 94 21 284 1 400 -18 100 -57 222 -97 301 -25 51 -32 57 -71 67 -70 18
-118 82 -118 157 0 28 -7 39 -47 68 -56 40 -126 77 -147 77 -10 0 -20 -23 -31
-77z"/>
<path d="M1764 12320 c-12 -5 -24 -13 -28 -18 -3 -5 13 -50 35 -101 104 -241
135 -546 79 -766 -33 -131 -91 -236 -175 -321 l-73 -75 131 -204 c73 -112 137
-204 144 -205 16 0 126 129 178 209 138 214 220 482 239 778 l7 102 -73 83
c-39 46 -110 124 -156 175 -81 89 -84 93 -93 158 -17 122 -75 196 -152 194
-23 0 -52 -4 -63 -9z"/>
<path d="M2343 11516 c-32 -367 -160 -687 -361 -907 l-61 -66 58 -94 c32 -52
88 -147 125 -211 37 -65 69 -118 71 -118 9 0 103 107 158 178 158 206 274 455
353 757 l33 129 -86 116 c-83 111 -272 350 -277 350 -1 0 -7 -60 -13 -134z"/>
<path d="M373 11592 c-18 -26 -94 -112 -169 -191 -133 -142 -164 -183 -164
-217 0 -9 9 -57 21 -106 20 -85 22 -89 39 -73 15 14 24 15 62 4 79 -21 164
-15 262 19 49 17 91 33 93 36 3 2 -7 40 -21 85 -35 109 -63 255 -75 379 -5 57
-11 105 -13 107 -2 2 -18 -18 -35 -43z"/>
<path d="M2746 11028 c-75 -335 -249 -681 -467 -929 l-58 -65 122 -217 122
-216 33 32 c52 49 181 212 244 307 122 185 232 410 311 636 l35 101 -156 216
c-87 119 -159 216 -162 217 -3 0 -13 -37 -24 -82z"/>
<path d="M0 11034 c0 -47 21 -97 35 -83 6 7 -19 116 -29 127 -3 3 -6 -17 -6
-44z"/>
<path d="M3116 10553 c-106 -342 -324 -727 -549 -971 l-58 -63 19 -32 c11 -18
66 -113 122 -212 56 -99 105 -182 107 -185 9 -9 121 120 224 256 168 223 312
478 424 752 l46 113 -109 137 c-59 75 -130 165 -157 200 -26 34 -49 62 -50 62
-1 0 -9 -26 -19 -57z"/>
<path d="M3451 10023 c-146 -351 -357 -696 -572 -935 -38 -42 -69 -79 -69 -83
0 -8 33 -64 163 -278 85 -140 91 -147 107 -130 174 189 339 414 472 643 101
171 268 521 268 559 0 8 -46 62 -103 120 -57 59 -128 134 -158 169 l-55 63
-53 -128z"/>
<path d="M3835 9637 c-166 -389 -392 -754 -648 -1047 l-74 -84 35 -56 c89
-140 235 -341 245 -337 15 5 160 176 248 294 89 119 221 320 298 455 67 117
212 409 260 525 l30 72 -87 68 c-48 37 -126 102 -173 145 l-87 77 -47 -112z"/>
<path d="M4280 9397 c-216 -516 -468 -937 -769 -1284 l-71 -83 76 -97 c118
-151 218 -272 226 -273 4 0 45 46 91 103 237 289 444 611 621 966 72 144 206
448 206 467 0 5 -38 29 -85 53 -46 24 -130 72 -185 107 -98 61 -101 62 -110
41z"/>
<path d="M4714 9134 c-227 -559 -487 -1014 -805 -1409 l-110 -137 48 -51 c177
-193 268 -287 275 -287 12 0 165 197 270 347 258 368 479 781 665 1238 64 159
70 181 55 187 -9 4 -93 37 -187 73 -93 36 -176 68 -183 72 -7 3 -18 -9 -28
-33z"/>
<path d="M5155 8893 c-227 -595 -530 -1143 -882 -1595 -46 -58 -83 -110 -83
-115 0 -6 33 -39 74 -76 l73 -66 -9 -53 c-17 -100 -52 -193 -138 -368 -95
-193 -115 -238 -108 -246 8 -7 228 228 339 361 456 548 812 1169 1100 1916 38
99 69 181 69 184 0 8 -369 155 -390 155 -4 0 -25 -44 -45 -97z"/>
<path d="M5620 8718 c-317 -899 -834 -1754 -1423 -2355 l-150 -153 7 -57 c8
-66 34 -174 45 -186 4 -4 51 61 106 144 485 743 1097 1329 1790 1715 115 64
282 145 438 212 l29 12 -56 60 c-30 33 -115 136 -189 228 -191 239 -285 322
-488 431 l-76 41 -33 -92z"/>
<path d="M6444 7940 c-125 -50 -334 -154 -472 -234 -653 -376 -1231 -931
-1689 -1621 -55 -82 -110 -167 -123 -188 l-23 -39 36 -91 c85 -214 106 -299
115 -467 l7 -115 39 70 c119 212 169 295 263 440 545 830 1254 1431 2058 1743
131 51 353 122 381 122 29 0 9 17 -100 90 -108 73 -256 188 -351 274 -27 25
-54 45 -60 45 -5 0 -42 -13 -81 -29z"/>
<path d="M7040 7465 c-837 -225 -1603 -770 -2201 -1565 -184 -245 -391 -579
-502 -810 -47 -97 -57 -129 -67 -205 -21 -172 -83 -403 -199 -745 -124 -368
-221 -611 -288 -720 -37 -60 -42 -77 -66 -230 -54 -338 -73 -528 -89 -888 -13
-300 -3 -659 28 -997 16 -174 19 -193 28 -184 3 2 41 205 85 449 114 626 163
814 301 1140 43 100 51 134 70 265 118 839 412 1637 848 2300 587 895 1397
1488 2287 1674 241 51 396 64 685 58 140 -3 269 -8 285 -12 29 -6 29 -5 -15
34 -68 62 -157 104 -381 180 -313 106 -438 158 -598 246 -45 25 -82 45 -84 44
-1 0 -58 -16 -127 -34z"/>
<path d="M7570 6904 c-674 -81 -1304 -385 -1867 -903 -641 -588 -1146 -1485
-1393 -2472 -37 -150 -111 -519 -104 -519 11 0 78 141 103 216 36 111 151 349
266 548 87 152 315 506 326 506 4 0 14 -30 23 -67 9 -38 21 -85 27 -107 l11
-39 42 99 c438 1014 1191 1767 2053 2053 303 101 508 134 833 134 193 0 260
-3 375 -21 229 -36 458 -101 659 -187 48 -20 90 -34 93 -31 12 12 -87 191
-158 286 -39 52 -106 133 -148 179 -72 80 -272 267 -317 297 -59 40 -578 58
-824 28z"/>
<path d="M7755 6264 c-185 -19 -258 -29 -375 -54 -696 -146 -1330 -578 -1831
-1248 -179 -239 -361 -554 -489 -847 l-70 -163 101 -408 c55 -225 103 -416
106 -424 3 -8 18 35 34 95 72 272 170 544 284 780 l62 130 -28 280 c-15 154
-30 294 -32 311 -7 40 28 76 92 99 57 20 201 20 328 0 l98 -16 150 149 c399
394 815 622 1314 719 123 24 159 26 381 27 159 1 273 -4 325 -12 123 -20 319
-70 425 -108 52 -19 98 -34 103 -34 4 0 7 53 7 118 0 65 3 122 6 125 15 14 48
-18 72 -71 18 -40 27 -80 31 -141 l6 -86 45 -23 c25 -14 76 -42 114 -63 38
-22 71 -37 74 -35 2 3 5 108 5 233 0 246 -17 386 -49 410 -30 22 -259 111
-378 147 -130 40 -313 79 -446 96 -91 11 -399 21 -465 14z"/>
<path d="M7645 5595 c-510 -66 -979 -302 -1393 -700 -59 -57 -104 -106 -101
-109 9 -10 258 -36 342 -36 90 0 129 -15 148 -59 15 -33 49 -46 92 -36 14 4
70 36 124 71 53 36 154 92 223 126 69 34 138 71 153 81 15 10 34 17 41 14 8
-3 48 5 89 18 381 121 812 104 1201 -49 50 -20 91 -34 92 -33 5 5 74 506 74
536 0 28 -5 34 -45 51 -117 50 -371 110 -547 129 -128 14 -368 12 -493 -4z"/>
<path d="M8850 5293 c1 -59 13 -207 29 -328 l27 -219 85 -63 c126 -94 118 -92
100 -20 -12 48 -15 125 -16 342 l0 280 -112 58 -113 58 0 -108z"/>
<path d="M7618 4929 c-91 -15 -153 -31 -300 -76 -12 -4 -16 -12 -13 -27 3 -11
32 -131 63 -266 40 -166 62 -244 71 -242 6 1 54 13 104 26 352 92 734 39 1061
-146 38 -21 70 -37 71 -36 1 2 -6 44 -17 93 -15 69 -20 133 -21 270 -1 99 2
201 6 227 l8 46 -80 31 c-118 45 -242 80 -369 102 -154 26 -431 25 -584 -2z"/>
<path d="M8926 4488 c5 -135 4 -180 -11 -261 -11 -62 -16 -124 -13 -168 l5
-69 90 -93 c49 -50 117 -128 152 -172 84 -107 83 -106 56 -38 -25 62 -55 187
-55 226 1 12 13 -14 29 -58 34 -101 43 -116 83 -150 31 -27 33 -27 36 -8 2 11
-11 43 -28 69 l-32 49 9 100 c4 55 8 147 8 205 l0 105 -57 130 c-61 141 -67
148 -221 256 l-58 41 7 -164z"/>
<path d="M7785 4294 c-75 -8 -205 -35 -271 -55 -52 -16 -65 -24 -62 -37 3 -9
31 -129 64 -265 58 -249 58 -249 84 -244 14 3 60 12 103 21 90 18 266 21 351
5 32 -6 59 -9 61 -7 2 2 -3 32 -11 68 -7 35 -12 66 -10 68 2 1 25 -34 52 -78
l49 -81 81 -33 c257 -103 508 -334 656 -604 23 -41 44 -70 49 -65 19 19 31
134 27 263 -6 165 -13 188 -148 470 -53 113 -108 233 -121 266 -21 57 -28 65
-89 102 -216 132 -444 200 -694 207 -72 1 -149 1 -171 -1z"/>
<path d="M5537 3871 c-65 -140 -119 -277 -173 -438 -47 -142 -124 -432 -124
-469 0 -12 23 -120 51 -240 98 -426 148 -780 210 -1494 29 -341 26 -367 -77
-576 l-54 -111 29 -84 c35 -105 111 -302 120 -311 10 -11 130 11 181 33 103
46 130 96 130 240 0 70 5 111 15 133 15 31 14 37 -15 115 -92 251 -169 590
-212 941 -21 169 -18 761 5 930 23 170 68 394 106 529 28 100 29 106 15 160
-16 60 -32 91 -71 132 -22 24 -25 44 -48 270 -14 134 -29 266 -33 294 l-7 50
-48 -104z"/>
<path d="M8985 3770 c20 -47 88 -183 152 -303 116 -219 189 -386 234 -537 13
-44 27 -80 31 -80 12 0 21 134 15 240 -6 102 -8 108 -61 215 -88 178 -231 379
-356 500 l-51 50 36 -85z"/>
<path d="M7727 3625 c-108 -22 -139 -34 -133 -53 12 -40 36 -321 36 -425 0
-63 2 -116 6 -119 3 -3 28 3 55 13 114 44 272 45 394 4 26 -9 49 -14 52 -11
17 16 55 215 60 313 5 99 3 120 -17 182 -12 39 -28 75 -34 80 -36 30 -297 40
-419 16z"/>
<path d="M8261 3573 c2 -5 32 -62 66 -128 163 -319 353 -818 437 -1152 53
-214 122 -607 163 -943 l8 -65 27 45 c39 65 105 236 129 331 l21 82 -21 151
c-11 83 -37 323 -56 533 -40 427 -36 411 -141 590 -124 211 -306 394 -494 497
-79 42 -143 70 -139 59z"/>
<path d="M3626 3131 c-14 -48 -24 -202 -11 -190 7 8 37 219 32 232 -2 7 -12
-12 -21 -42z"/>
<path d="M7834 2980 c-90 -13 -184 -50 -193 -74 -5 -11 -11 -115 -14 -231 -11
-387 -83 -768 -226 -1193 l-58 -173 58 -87 c55 -83 182 -232 198 -232 11 0 36
95 97 368 l53 244 -33 66 c-100 199 -121 443 -51 588 51 104 156 173 246 161
l36 -5 77 244 c42 133 78 255 79 271 2 25 -2 29 -45 39 -69 18 -165 24 -224
14z"/>
<path d="M5706 2683 c-33 -192 -46 -331 -52 -553 -11 -390 29 -753 122 -1120
35 -134 115 -380 125 -380 16 0 31 86 27 157 -2 54 0 73 9 73 16 0 16 5 3 50
-6 19 -17 80 -26 135 -9 55 -34 179 -56 275 -115 506 -133 656 -133 1128 0
182 0 332 -1 332 -1 0 -9 -44 -18 -97z"/>
<path d="M3566 2448 c-4 -18 -40 -218 -81 -443 -105 -579 -169 -880 -245
-1143 l-30 -103 21 -122 c47 -279 87 -459 100 -451 20 12 48 84 73 183 30 122
65 201 141 317 108 166 113 188 85 401 -44 347 -54 522 -55 965 0 236 -1 428
-1 428 -1 0 -4 -15 -8 -32z"/>
<path d="M7840 2314 c-49 -21 -97 -70 -128 -129 -52 -100 -40 -309 26 -449
l28 -60 23 110 c13 60 47 206 77 324 30 118 54 216 54 217 0 8 -50 0 -80 -13z"/>
<path d="M9130 1567 c0 -47 -100 -284 -160 -377 l-28 -45 10 -95 c12 -111 4
-294 -15 -365 -8 -27 -46 -113 -85 -190 -39 -77 -74 -153 -78 -169 l-7 -30 34
21 c170 108 352 286 471 463 l37 55 -15 99 c-8 55 -44 213 -80 353 -35 140
-64 263 -64 273 0 11 -4 20 -10 20 -5 0 -10 -6 -10 -13z"/>
<path d="M7291 1183 c-13 -32 -59 -131 -103 -220 -70 -143 -84 -165 -114 -179
-19 -9 -34 -20 -34 -24 0 -28 273 -330 299 -330 12 0 52 173 53 232 l1 51 61
27 c74 34 94 54 117 122 l17 52 -79 83 c-43 46 -102 120 -131 163 -29 44 -55
80 -59 80 -3 0 -16 -26 -28 -57z"/>
<path d="M6967 688 c-32 -44 -47 -72 -112 -213 -31 -65 -74 -143 -97 -173 -34
-43 -40 -57 -31 -70 12 -19 13 -19 241 3 178 17 258 36 267 64 3 10 21 29 40
42 l34 24 -98 100 c-53 55 -123 135 -155 178 -31 42 -59 77 -61 77 -2 0 -15
-15 -28 -32z"/>
<path d="M3098 605 c-84 -114 -106 -158 -162 -312 -38 -108 -42 -124 -28 -135
18 -15 339 -24 359 -11 10 7 9 21 -2 63 -8 30 -30 141 -50 245 -52 275 -38
258 -117 150z"/>
<path d="M9265 632 c-22 -31 -96 -114 -165 -183 -137 -138 -263 -229 -413
-299 -82 -38 -87 -43 -97 -81 -20 -73 9 -84 125 -47 64 20 75 20 160 9 116
-16 155 -7 225 56 77 69 93 107 100 243 6 121 4 116 76 230 23 37 34 66 34 92
0 21 -1 38 -2 38 -2 -1 -21 -27 -43 -58z"/>
<path d="M5296 409 c-19 -41 -37 -88 -41 -104 -4 -17 -14 -47 -22 -68 -16 -36
-15 -39 3 -57 22 -22 102 -40 179 -40 l53 0 -42 108 c-24 59 -51 132 -61 162
-9 30 -21 59 -26 64 -5 6 -23 -22 -43 -65z"/>
</g>
</svg>
