<?xml version="1.0" standalone="no"?>
<!DOCTYPE svg PUBLIC "-//W3C//DTD SVG 20010904//EN"
 "http://www.w3.org/TR/2001/REC-SVG-20010904/DTD/svg10.dtd">
<svg version="1.0" xmlns="http://www.w3.org/2000/svg"
 width="964.000000pt" height="1280.000000pt" viewBox="0 0 964.000000 1280.000000"
 preserveAspectRatio="xMidYMid meet">
<metadata>
Created by potrace 1.15, written by Peter Selinger 2001-2017
</metadata>
<g transform="translate(0.000000,1280.000000) scale(0.100000,-0.100000)"
fill="#000000" stroke="none">
<path d="M8230 12759 c-47 -48 -51 -80 -19 -146 23 -47 34 -53 44 -23 9 27 34
25 39 -2 3 -13 7 -62 10 -110 6 -102 16 -125 62 -144 19 -8 35 -20 35 -27 1
-6 2 -25 3 -41 1 -41 24 -44 40 -4 l15 33 19 -45 c25 -54 45 -155 40 -195 -2
-21 -12 -34 -33 -45 l-30 -14 42 -6 c24 -4 45 -9 49 -12 14 -15 -50 -39 -126
-48 -124 -14 -133 -38 -33 -86 58 -29 58 -29 258 -29 l199 0 8 -39 c5 -22 10
-41 12 -43 2 -2 20 4 40 13 32 16 43 16 103 5 80 -16 93 -24 93 -61 0 -34 17
-49 64 -57 45 -7 46 -18 1 -34 -45 -17 -48 -47 -5 -55 27 -6 30 -10 30 -45 0
-25 13 -65 34 -107 18 -37 37 -81 40 -98 4 -17 23 -46 43 -65 22 -20 34 -27
30 -16 -11 31 10 18 57 -34 38 -43 46 -47 46 -29 0 17 5 21 28 18 25 -3 27 -6
24 -46 -4 -48 7 -66 51 -88 70 -36 108 16 90 123 -6 35 -22 85 -35 111 -20 40
-28 47 -56 50 -27 3 -32 7 -27 22 9 29 -9 56 -104 155 -47 50 -119 134 -159
188 -41 53 -108 134 -149 179 -105 116 -152 175 -169 217 -36 88 -153 161
-256 161 -68 0 -68 0 -104 129 -80 281 -109 346 -167 372 -23 10 -55 28 -72
39 -43 29 -60 25 -105 -21z"/>
<path d="M8156 12301 c-51 -44 -63 -47 -131 -30 -54 14 -84 7 -124 -27 -17
-14 -38 -24 -46 -20 -8 3 -23 -6 -34 -21 -21 -26 -26 -23 -33 21 -4 27 -57 39
-140 33 -110 -7 -120 -33 -36 -86 53 -34 94 -96 104 -160 l7 -44 -44 6 -44 7
24 -20 23 -20 -46 0 c-49 0 -54 -5 -33 -34 12 -17 16 -17 75 8 35 15 81 26
106 26 24 0 63 9 87 19 24 11 45 18 47 16 2 -2 -4 -17 -12 -34 -20 -38 -20
-65 0 -82 13 -10 15 -24 10 -62 l-7 -48 46 6 45 7 0 -43 c0 -40 14 -80 23 -69
1 3 9 34 16 70 7 36 20 76 29 90 20 32 19 107 -2 148 -20 39 -29 40 -53 6 -18
-25 -20 -25 -36 -9 -25 24 -23 58 3 50 24 -8 70 21 70 44 0 9 -14 34 -31 54
-40 49 -30 59 52 55 59 -3 65 -5 77 -31 19 -39 46 -32 50 12 2 23 -3 43 -17
62 -27 36 -26 43 3 63 28 18 43 53 28 68 -6 6 -26 -5 -56 -31z m-224 -162 c11
-14 18 -36 16 -48 -3 -21 -4 -20 -52 11 -57 38 -67 55 -34 61 38 7 50 3 70
-24z"/>
<path d="M7590 12105 c0 -21 24 -29 49 -15 28 14 18 30 -20 30 -19 0 -29 -5
-29 -15z"/>
<path d="M8237 12113 c-11 -10 -8 -53 3 -53 6 0 10 14 10 30 0 31 -2 35 -13
23z"/>
<path d="M8140 11947 c0 -13 21 -36 48 -51 21 -12 14 22 -10 44 -25 23 -38 26
-38 7z"/>
<path d="M7479 11822 c-24 -16 -62 -49 -84 -73 -38 -42 -50 -64 -71 -134 -8
-24 -16 -31 -44 -36 -45 -7 -77 -24 -90 -49 -14 -25 -13 -27 11 -33 35 -9 17
-30 -59 -68 -92 -46 -112 -64 -112 -104 0 -23 -8 -37 -29 -53 -36 -26 -134
-147 -342 -420 -182 -241 -219 -292 -219 -309 0 -21 31 -15 37 8 3 11 17 25
30 30 20 7 24 14 20 31 -9 31 10 48 53 48 35 0 37 2 32 26 -4 20 4 34 34 65
21 21 43 53 48 69 8 21 31 44 76 73 61 40 65 44 68 85 3 37 6 42 27 42 13 0
28 8 34 17 5 9 26 22 47 28 45 12 62 46 19 38 -20 -4 -25 -1 -25 15 0 29 25
45 61 38 25 -5 30 -3 25 9 -3 9 12 32 40 60 35 34 45 51 43 72 -2 21 7 38 34
66 20 21 37 34 37 28 0 -20 19 -11 60 27 31 30 40 46 40 72 0 23 4 31 14 27
19 -7 37 15 76 93 37 74 58 102 72 94 6 -4 23 3 39 15 15 11 31 21 34 21 13 0
-31 -67 -67 -104 -22 -21 -53 -66 -69 -100 -31 -64 -35 -86 -19 -86 18 0 50
40 126 155 74 112 117 206 107 232 -9 22 -67 15 -114 -15z m-394 -502 c-3 -5
-11 -10 -16 -10 -6 0 -7 5 -4 10 3 6 11 10 16 10 6 0 7 -4 4 -10z"/>
<path d="M8240 11814 c-20 -52 21 -115 62 -93 22 12 23 40 2 85 -20 41 -50 45
-64 8z"/>
<path d="M8103 11788 c4 -18 15 -84 26 -145 21 -121 50 -199 76 -210 28 -10
66 38 72 90 8 67 -2 96 -38 109 -29 10 -31 14 -26 46 6 33 5 34 -23 29 -32 -7
-40 5 -40 57 0 34 -15 56 -38 56 -11 0 -13 -8 -9 -32z"/>
<path d="M7905 11680 c-10 -31 3 -106 20 -120 36 -30 37 92 2 128 -13 12 -16
12 -22 -8z"/>
<path d="M9022 11655 c2 -29 8 -41 21 -43 24 -5 22 30 -3 59 l-20 24 2 -40z"/>
<path d="M7623 11664 c-72 -36 -201 -210 -175 -236 6 -6 39 -16 74 -23 78 -17
80 -16 138 103 53 106 60 166 20 170 -14 1 -39 -5 -57 -14z"/>
<path d="M8342 11623 c-25 -10 -33 -41 -18 -71 15 -30 140 -152 155 -152 10 0
4 77 -11 134 -17 68 -75 110 -126 89z"/>
<path d="M8819 11543 c-26 -66 -44 -93 -125 -187 -46 -55 -83 -104 -81 -110 2
-7 39 -11 95 -11 105 0 133 14 167 81 25 49 32 186 13 224 -20 37 -55 38 -69
3z"/>
<path d="M7802 11468 c-42 -61 -64 -107 -57 -118 17 -27 74 -1 87 40 3 8 8 -5
13 -30 10 -59 21 -73 47 -59 15 8 19 17 14 37 -3 15 -9 47 -14 72 -12 58 -32
100 -48 100 -7 0 -26 -19 -42 -42z"/>
<path d="M8275 11429 c-4 -12 -4 -41 0 -65 8 -54 -14 -70 -46 -35 -17 18 -30
21 -67 19 -52 -3 -55 -9 -28 -70 24 -55 4 -46 -38 17 -48 72 -105 135 -122
135 -19 0 -18 -54 1 -70 21 -18 36 -80 27 -115 -6 -21 -16 -31 -39 -37 -23 -6
-37 -21 -62 -68 -18 -33 -41 -65 -52 -70 -20 -11 -20 -10 -31 30 -7 23 -39
-33 -42 -74 -4 -40 -26 -80 -158 -279 -54 -82 -113 -180 -131 -218 -17 -38
-35 -69 -39 -69 -5 0 -8 14 -8 31 0 44 -45 85 -102 94 -58 9 -82 -4 -109 -58
-27 -51 -29 -127 -10 -252 17 -110 11 -145 -25 -145 -19 0 -28 8 -40 35 -12
31 -19 35 -49 35 -29 0 -37 5 -45 25 -18 47 -148 121 -200 113 -41 -6 -63 -49
-68 -136 l-4 -78 84 -85 c151 -150 231 -332 106 -240 -23 17 -52 31 -64 31
-12 0 -46 11 -76 25 -29 14 -63 25 -76 25 -41 0 -82 -30 -120 -88 -30 -47 -37
-66 -37 -108 0 -45 5 -57 44 -108 30 -38 45 -68 45 -89 2 -43 10 -53 45 -60
84 -17 9 -147 -85 -147 -44 0 -92 36 -142 108 -53 76 -75 92 -134 94 -55 3
-74 -11 -99 -70 -11 -24 -46 -85 -79 -136 -76 -117 -83 -147 -44 -187 23 -24
25 -29 9 -23 -12 5 4 -18 37 -54 55 -60 79 -107 75 -147 -1 -14 3 -19 16 -17
50 9 88 -58 50 -89 -9 -8 -25 -33 -35 -56 -28 -64 -78 -55 -78 15 0 24 -4 33
-13 29 -21 -8 -73 19 -120 62 -46 43 -87 63 -105 53 -6 -4 -19 -30 -30 -57
-11 -28 -43 -94 -71 -148 -59 -112 -64 -151 -26 -187 25 -23 45 -75 45 -117 0
-15 -30 -51 -91 -110 -137 -133 -218 -255 -219 -332 0 -40 -57 -161 -76 -161
-7 0 -53 20 -103 44 -103 50 -164 65 -187 45 -37 -31 -104 -204 -104 -269 0
-20 5 -41 12 -48 20 -20 -1 -27 -106 -33 -83 -4 -110 -10 -139 -28 -46 -28
-117 -125 -117 -160 0 -20 26 -52 117 -140 110 -105 116 -113 84 -107 -37 7
-112 41 -173 78 -35 21 -40 22 -64 8 -39 -22 -85 -92 -91 -139 -7 -51 13 -84
120 -193 92 -94 143 -123 204 -114 l43 6 -7 -58 c-17 -122 -12 -150 40 -237
71 -119 63 -136 -36 -79 -100 57 -163 10 -193 -143 -12 -64 -14 -122 -8 -314
l6 -236 -32 -23 c-22 -16 -30 -28 -27 -42 3 -11 -5 -54 -18 -97 -12 -43 -28
-110 -34 -150 -15 -94 -35 -144 -108 -271 -83 -143 -94 -154 -148 -148 -25 3
-57 16 -77 32 -45 33 -51 33 -71 -7 -9 -17 -22 -39 -28 -48 -17 -23 -4 -77 34
-140 27 -45 39 -56 75 -68 49 -15 85 -57 62 -71 -8 -5 -55 -16 -104 -25 -108
-20 -126 -28 -126 -58 0 -67 82 -62 178 11 18 14 35 22 38 19 12 -11 -26 -77
-53 -91 -39 -20 -53 -38 -63 -81 -9 -40 6 -55 55 -55 57 0 37 -63 -25 -80 -50
-14 -65 -39 -50 -85 12 -37 46 -66 94 -82 28 -9 27 -10 -45 -36 -86 -32 -135
-66 -126 -90 3 -8 26 -24 50 -35 24 -11 48 -26 53 -33 7 -12 47 -116 60 -159
3 -9 -15 -42 -40 -75 -32 -40 -46 -68 -46 -89 0 -20 -10 -41 -32 -64 l-33 -34
48 -40 c39 -33 47 -46 47 -73 0 -37 -14 -51 -47 -47 -30 4 -80 -24 -88 -49 -4
-11 -4 -36 -1 -54 8 -41 1 -46 -50 -35 -68 16 -96 -7 -53 -45 16 -16 20 -29
17 -75 -3 -65 2 -76 48 -95 32 -13 45 -37 25 -49 -5 -3 -29 1 -55 10 -56 19
-76 9 -76 -41 0 -39 21 -59 52 -50 l23 6 -23 -20 c-23 -20 -81 -41 -114 -41
-34 0 -26 -17 12 -29 51 -15 56 -26 34 -66 l-18 -34 52 -55 c47 -49 72 -90 72
-116 0 -6 -20 -7 -45 -3 l-45 6 0 -112 c0 -84 -4 -120 -16 -143 -13 -25 -15
-47 -10 -104 6 -67 5 -74 -14 -84 -37 -20 -22 -120 18 -120 21 0 42 -19 42
-37 0 -18 -27 -16 -89 7 -29 12 -57 20 -61 18 -5 -2 9 -32 31 -68 41 -68 39
-83 -7 -54 -25 17 -27 17 -41 -1 -20 -28 -12 -49 22 -55 45 -8 45 -37 0 -56
-42 -17 -65 -61 -65 -124 0 -35 4 -43 30 -58 16 -9 30 -22 30 -29 0 -22 -20
-24 -49 -7 -59 35 -71 4 -71 -182 0 -61 3 -126 6 -143 6 -28 8 -29 19 -15 20
28 44 9 77 -61 24 -52 31 -84 36 -152 4 -72 2 -87 -11 -95 -12 -6 -14 -14 -7
-32 6 -16 4 -32 -6 -51 -20 -39 -17 -84 12 -187 19 -66 26 -114 26 -172 0 -54
4 -88 14 -103 8 -12 14 -25 14 -29 0 -3 -21 -26 -46 -50 -46 -45 -52 -66 -21
-72 12 -2 17 3 17 17 0 27 12 27 28 0 11 -17 20 -20 49 -16 20 4 33 3 30 0
-12 -12 14 -42 59 -67 l47 -26 -6 112 c-6 123 -27 210 -56 230 -26 19 -48 58
-55 98 -16 92 -27 248 -27 375 0 120 4 160 30 275 17 74 37 154 46 177 12 34
17 133 24 465 9 421 9 423 35 503 15 44 45 158 67 254 43 186 64 241 104 267
23 15 27 15 50 0 72 -47 94 -214 95 -703 0 -348 19 -596 64 -831 64 -332 70
-362 77 -362 8 0 71 126 84 169 4 13 14 40 22 60 l15 35 14 -32 c8 -20 20 -32
32 -32 28 0 43 -23 40 -61 -2 -24 1 -34 12 -34 12 0 16 -25 21 -135 6 -109 12
-151 34 -218 31 -91 79 -177 96 -167 12 8 7 36 -33 170 -20 70 -33 147 -43
255 -8 85 -24 200 -35 254 -30 142 -48 333 -60 626 -13 305 -7 443 26 609 37
183 45 405 33 872 -6 264 -6 450 0 560 10 153 80 677 102 762 5 20 25 52 44
71 74 75 95 157 105 426 11 272 44 423 110 500 17 19 40 55 52 80 11 25 44 79
73 120 113 163 134 229 142 436 6 175 3 188 -89 315 -30 42 -64 100 -77 130
-13 30 -30 62 -39 72 -13 15 -14 33 -5 140 18 194 105 431 207 562 25 33 91
121 146 195 54 74 143 187 197 250 54 64 126 156 159 205 69 100 85 117 161
164 37 23 63 50 87 89 19 32 43 62 54 69 11 6 22 25 25 41 3 16 22 48 41 71
20 24 36 48 36 55 0 22 43 92 162 263 65 95 126 189 134 209 9 21 48 85 88
143 41 58 153 243 251 411 98 168 201 338 229 378 63 90 62 88 75 137 6 22 54
119 106 215 52 96 111 213 131 260 32 76 60 122 212 343 23 34 67 87 96 117
57 58 85 105 79 130 -3 12 4 15 34 12 23 -2 60 5 92 18 132 52 316 45 517 -21
125 -40 179 -49 172 -26 -6 18 -38 31 -173 74 -115 37 -118 38 -75 41 53 4 68
15 50 37 -18 22 -41 19 -80 -10 -21 -15 -47 -25 -68 -25 -53 0 -113 43 -97 70
3 4 25 11 50 14 l45 7 -16 31 c-37 72 -104 104 -119 57z m-2265 -3103 c0 -15
-64 -76 -80 -76 -6 0 -10 5 -10 10 0 18 29 68 42 73 25 10 48 7 48 -7z m-820
-2066 c13 -24 5 -41 -15 -33 -16 6 -21 53 -5 53 5 0 14 -9 20 -20z m48 -82
c15 -15 15 -50 0 -99 -14 -48 -28 -50 -28 -5 0 19 -5 47 -10 62 -15 39 11 69
38 42z m-568 -1860 c-15 -123 -45 -263 -74 -347 -14 -39 -30 -109 -37 -154
-13 -92 -54 -274 -99 -433 -30 -108 -44 -143 -36 -88 3 16 8 67 11 114 3 47
12 130 21 185 16 106 165 740 191 814 15 42 17 44 25 21 5 -15 5 -59 -2 -112z
m-442 -1579 c-3 -24 -33 -48 -44 -36 -4 4 -2 18 4 32 14 31 45 34 40 4z"/>
<path d="M8540 11380 c0 -11 53 -40 74 -40 24 0 31 22 11 37 -22 15 -85 18
-85 3z"/>
<path d="M7205 11301 c-49 -30 -74 -65 -84 -113 -4 -26 -20 -61 -35 -78 -29
-35 -33 -58 -11 -66 44 -17 120 46 187 157 44 72 50 104 17 94 -13 -5 -25 -1
-32 9 -11 15 -15 14 -42 -3z"/>
<path d="M7403 11278 c-29 -32 -52 -91 -59 -154 -7 -60 -5 -61 54 -45 26 8 32
7 32 -5 0 -9 12 -36 28 -62 20 -36 28 -65 32 -120 3 -39 4 -72 2 -72 -2 0 -24
17 -50 39 -70 58 -86 64 -110 43 -26 -22 -42 -73 -42 -133 0 -45 2 -50 43 -77
23 -16 57 -37 76 -46 l33 -18 39 38 c47 46 119 151 119 173 0 9 12 41 26 71
23 48 27 72 32 183 5 141 0 159 -40 133 -26 -17 -39 -12 -57 22 -14 26 -33 28
-51 7 -19 -23 -38 -18 -55 15 -19 36 -25 37 -52 8z"/>
<path d="M9201 11194 c-22 -28 -23 -24 24 -134 20 -46 26 -75 22 -102 -7 -51
14 -62 110 -56 111 7 141 47 88 119 -13 19 -32 44 -41 57 -9 12 -22 38 -29 58
-10 30 -13 33 -25 19 -30 -36 -138 3 -127 46 7 25 2 24 -22 -7z m139 -132 c13
-8 19 -17 13 -19 -14 -5 -69 22 -79 38 -9 14 32 3 66 -19z"/>
<path d="M6865 10898 c-132 -185 -141 -214 -88 -285 32 -43 67 -44 92 -3 27
45 100 400 82 400 -3 0 -42 -50 -86 -112z"/>
<path d="M7119 10960 c-45 -24 -82 -72 -103 -133 -23 -67 1 -117 57 -117 70 0
137 97 140 203 l2 62 -30 2 c-16 2 -46 -6 -66 -17z"/>
<path d="M7046 10615 c-74 -30 -101 -55 -91 -84 8 -28 49 -75 86 -102 26 -18
34 -19 59 -9 78 32 97 221 22 220 -9 0 -44 -11 -76 -25z"/>
<path d="M6543 10497 c-84 -88 -183 -207 -183 -220 0 -4 13 1 29 13 53 37 104
53 198 61 144 12 191 44 159 107 -18 34 -100 112 -120 112 -7 0 -45 -33 -83
-73z"/>
<path d="M6305 10438 c-67 -59 -193 -205 -216 -250 -17 -33 -17 -38 -3 -52 26
-26 69 -20 83 11 11 23 10 29 -3 39 -9 6 -16 19 -16 28 0 16 10 20 43 17 9 -1
17 4 17 12 0 14 43 75 118 167 66 81 54 96 -23 28z"/>
<path d="M6395 10211 c-77 -19 -104 -68 -113 -203 l-5 -87 27 -11 c30 -11 26
-29 -13 -64 -35 -32 -1 -94 68 -123 31 -13 35 -13 73 14 43 29 108 107 108
128 0 7 16 32 35 55 42 51 55 93 55 188 0 101 -12 112 -122 111 -46 -1 -96 -4
-113 -8z"/>
<path d="M6014 10065 c-54 -39 -180 -160 -196 -188 -14 -27 -3 -32 26 -13 34
22 39 20 32 -9 -9 -36 6 -31 47 14 40 44 69 94 65 113 -2 6 6 13 17 15 45 9
51 14 33 24 -27 15 -22 28 16 44 41 17 55 35 28 35 -10 0 -41 -16 -68 -35z"/>
<path d="M6067 9960 c-133 -140 -174 -200 -198 -289 -10 -38 -46 -131 -79
-206 -79 -179 -79 -194 9 -214 88 -19 170 27 273 157 103 130 120 189 73 253
-51 70 -59 98 -46 163 7 33 30 98 52 146 21 48 39 90 39 94 0 19 -29 -5 -123
-104z"/>
<path d="M5743 9780 c-27 -11 -158 -138 -150 -146 3 -4 34 16 68 42 34 27 80
58 103 69 22 11 41 25 41 30 0 13 -35 16 -62 5z"/>
<path d="M5634 9555 c-88 -98 -151 -129 -184 -90 -16 20 -28 19 -84 -6 -26
-11 -54 -19 -64 -18 -34 3 -49 -2 -83 -27 l-34 -25 39 7 c31 5 38 4 34 -7 -5
-16 -23 -25 -143 -74 -49 -20 -108 -47 -130 -60 l-40 -25 32 0 c28 0 35 -5 47
-35 12 -27 21 -35 40 -35 48 0 45 47 -5 77 -16 9 -29 20 -29 23 0 3 29 5 64 5
60 0 67 3 141 53 50 33 89 52 107 52 28 0 29 -2 23 -31 -9 -41 16 -35 29 7 14
48 22 59 50 68 39 14 78 -3 87 -38 9 -33 24 -46 56 -46 60 0 144 135 147 234
1 45 -2 51 -20 54 -16 2 -37 -14 -80 -63z"/>
<path d="M5448 9584 c-60 -31 -64 -54 -9 -54 42 0 65 18 55 44 -4 10 -1 16 9
16 9 0 19 5 22 10 11 18 -29 10 -77 -16z"/>
<path d="M5351 9228 c-6 -7 -20 -25 -31 -39 -10 -14 -52 -43 -92 -64 -106 -56
-180 -108 -213 -151 -23 -30 -25 -36 -10 -30 57 21 104 19 157 -9 36 -19 69
-28 103 -29 38 -1 51 -5 53 -18 2 -9 9 -18 16 -21 58 -22 257 185 260 271 1
34 -1 37 -29 40 -20 2 -43 -6 -65 -20 -61 -42 -64 -43 -57 -25 4 10 -3 21 -18
31 -13 9 -25 28 -27 43 -3 31 -29 42 -47 21z"/>
<path d="M4935 9132 c-29 -16 -29 -17 -7 -20 23 -4 52 13 52 29 0 13 -11 11
-45 -9z"/>
<path d="M5669 9018 c-24 -29 -63 -75 -86 -102 -49 -55 -54 -71 -18 -62 14 4
25 3 25 -2 0 -8 -49 -56 -84 -83 -18 -13 -19 -12 -13 4 10 27 -6 20 -46 -21
-50 -51 -49 -84 3 -150 22 -27 40 -58 40 -67 0 -14 6 -16 33 -11 17 3 39 15
49 26 9 11 28 20 45 20 75 0 155 113 174 246 5 38 15 74 23 79 17 14 36 50 36
71 0 26 -86 104 -114 104 -17 0 -37 -16 -67 -52z"/>
<path d="M4836 8989 c-24 -19 -36 -49 -18 -49 13 1 38 24 51 48 15 28 2 28
-33 1z"/>
<path d="M4206 8875 c-6 -31 -9 -34 -35 -29 -22 5 -33 -1 -59 -30 -34 -39 -62
-118 -62 -178 0 -43 1 -43 38 -24 59 31 212 218 212 259 0 14 -47 37 -75 37
-7 0 -16 -16 -19 -35z"/>
<path d="M4457 8903 c-16 -15 -5 -35 29 -49 58 -24 108 8 61 41 -22 15 -78 21
-90 8z"/>
<path d="M4743 8839 c-68 -32 -97 -64 -161 -175 -56 -96 -61 -121 -30 -133 14
-5 31 -23 37 -40 15 -35 80 -71 129 -71 24 0 35 6 46 28 23 46 48 173 48 246
0 38 6 87 14 109 28 78 14 84 -83 36z"/>
<path d="M4950 8851 c-5 -11 -10 -48 -10 -83 0 -35 -8 -92 -16 -128 -11 -42
-17 -114 -18 -205 -1 -131 1 -143 23 -182 38 -66 47 -55 24 30 -6 23 4 21 62
-13 28 -16 53 -30 57 -30 4 0 16 10 28 22 20 21 20 21 34 3 13 -19 15 -18 45
14 76 81 106 170 80 238 -6 15 -13 52 -17 83 -7 58 -8 58 -82 75 -16 3 -37 24
-60 61 -35 56 -111 134 -129 134 -6 0 -15 -9 -21 -19z"/>
<path d="M4441 8724 c-78 -21 -150 -63 -157 -91 -4 -13 -1 -37 6 -53 10 -24 9
-33 -6 -59 -46 -77 26 -36 164 94 51 48 97 96 103 106 9 17 6 19 -23 18 -18 0
-57 -7 -87 -15z"/>
<path d="M3957 8652 c-22 -24 -21 -32 1 -32 21 0 56 33 45 43 -11 12 -29 8
-46 -11z"/>
<path d="M3879 8525 c-20 -13 -51 -41 -68 -62 -43 -51 -101 -173 -101 -211 0
-24 -7 -34 -34 -50 -19 -12 -47 -40 -62 -64 -36 -57 -68 -148 -56 -160 15 -15
169 -13 188 3 27 23 77 134 103 234 10 34 18 43 59 61 58 26 212 135 212 150
0 19 -52 64 -74 64 -11 0 -48 -11 -81 -25 -59 -24 -115 -33 -115 -17 0 4 18
26 40 47 59 58 54 73 -11 30z"/>
<path d="M4367 8390 c-36 -59 -14 -201 47 -304 34 -58 100 -131 142 -157 l36
-22 38 38 c46 45 100 142 100 181 0 15 3 24 7 21 13 -13 33 16 33 47 0 44 -18
63 -66 70 -23 3 -75 21 -115 40 -41 18 -94 42 -119 52 -25 10 -54 29 -66 41
l-20 22 -17 -29z"/>
<path d="M5593 8385 c-18 -8 -34 -20 -34 -27 -1 -7 -2 -24 -3 -38 -1 -21 -7
-26 -33 -28 -39 -4 -40 -8 -10 -33 19 -16 20 -20 7 -29 -26 -17 -37 -11 -54
30 -18 45 -25 47 -63 23 -26 -17 -26 -17 -14 6 23 42 0 37 -41 -9 -54 -60 -90
-139 -86 -187 3 -32 6 -38 24 -35 13 2 49 -16 88 -43 36 -25 68 -45 71 -45 3
0 3 11 -1 25 -3 14 -3 32 0 40 8 21 37 5 56 -29 14 -27 50 -36 50 -13 0 6 -14
32 -30 57 -16 25 -30 51 -30 58 0 21 25 13 55 -18 36 -37 47 -37 78 0 58 69
87 209 47 230 -11 6 -20 19 -20 30 0 23 -10 50 -19 50 -3 -1 -21 -7 -38 -15z"/>
<path d="M3627 8365 c-15 -14 -36 -25 -46 -25 -48 0 -55 -63 -11 -105 29 -28
30 -28 51 -9 28 26 69 107 69 139 0 33 -26 33 -63 0z"/>
<path d="M4120 8308 c-45 -13 -206 -176 -240 -244 -21 -42 -25 -65 -28 -169
-5 -147 -1 -154 80 -135 29 7 63 18 75 24 23 11 113 121 113 138 0 5 20 31 45
57 25 27 50 62 54 78 11 39 -21 242 -40 254 -16 10 -14 10 -59 -3z"/>
<path d="M3433 8077 c-106 -111 -166 -208 -145 -229 15 -15 111 39 162 93 53
55 100 141 100 182 0 22 -5 27 -24 27 -16 0 -45 -22 -93 -73z"/>
<path d="M4900 8077 c-17 -9 -26 -22 -28 -45 -2 -23 -8 -32 -22 -32 -21 0 -68
-51 -106 -115 -31 -53 -26 -70 9 -30 l23 28 32 -56 c18 -31 32 -59 32 -62 0
-3 -12 -5 -26 -5 -19 0 -25 4 -20 15 8 22 -12 18 -24 -4 -13 -26 -12 -69 4
-106 l13 -30 18 40 c9 22 19 36 20 30 2 -5 6 -22 9 -37 16 -74 216 -43 216 34
0 11 9 35 19 52 39 63 58 280 26 292 -9 4 -14 14 -13 23 3 13 -9 16 -77 19
-50 1 -89 -3 -105 -11z"/>
<path d="M4200 7853 c-120 -128 -120 -132 -40 -207 41 -38 56 -46 87 -46 55 0
103 32 103 69 0 27 -54 222 -69 249 -6 10 -28 -9 -81 -65z"/>
<path d="M3474 7848 c-43 -87 -84 -119 -84 -67 0 30 -35 23 -65 -13 -14 -17
-47 -72 -72 -122 -25 -49 -63 -118 -84 -152 -60 -95 -51 -144 26 -144 91 0
203 87 227 175 7 25 15 45 18 45 3 0 13 -20 23 -45 22 -52 42 -57 78 -19 13
14 52 39 87 55 103 49 152 141 119 221 -12 30 -22 37 -63 47 -26 7 -58 21 -71
31 -13 10 -31 16 -39 13 -8 -3 -25 2 -39 11 -13 9 -27 16 -29 16 -3 0 -17 -24
-32 -52z"/>
<path d="M4333 7883 c-4 -10 2 -23 17 -35 21 -17 23 -26 21 -91 l-2 -72 37 35
c67 64 76 130 18 130 -14 0 -35 11 -48 25 -27 29 -34 31 -43 8z"/>
<path d="M3178 7847 c-31 -25 -35 -37 -14 -37 16 0 66 38 66 51 0 16 -24 9
-52 -14z"/>
<path d="M3163 7781 c-17 -11 -59 -42 -94 -70 -35 -28 -73 -51 -86 -51 -17 0
-23 -7 -29 -35 -5 -28 -11 -35 -30 -35 -13 0 -62 -16 -109 -35 -47 -20 -122
-42 -167 -51 -203 -37 -455 -117 -599 -189 -48 -24 -108 -50 -134 -56 -26 -7
-69 -30 -97 -52 -77 -60 -153 -97 -203 -97 -37 0 -46 -5 -69 -35 -15 -19 -35
-35 -44 -35 -20 0 -62 -27 -62 -39 0 -5 11 -6 24 -4 21 4 24 2 19 -16 -7 -29
-62 -73 -81 -66 -36 13 -169 -96 -197 -161 -8 -21 -14 -39 -11 -41 2 -2 47 38
101 88 90 84 99 91 111 74 11 -14 21 -16 60 -10 62 9 51 -6 -34 -49 -90 -45
-102 -61 -112 -143 -5 -37 -12 -88 -16 -112 l-7 -43 29 15 c17 8 64 51 105 95
55 57 78 89 83 114 4 20 24 55 46 81 22 25 48 65 59 90 13 31 27 46 45 51 14
3 80 47 146 97 150 111 167 120 186 94 19 -26 34 -82 34 -127 0 -45 38 -94 83
-106 59 -16 158 30 232 107 25 27 27 34 17 49 -32 45 -34 58 -18 116 16 55 60
117 98 137 38 20 31 -2 -15 -49 -25 -26 -50 -58 -55 -72 -22 -61 33 -135 83
-112 35 16 56 54 72 130 13 62 44 115 56 95 3 -4 -4 -36 -15 -71 -12 -34 -19
-65 -16 -68 3 -3 32 11 64 31 76 45 87 45 78 0 -8 -42 12 -95 63 -172 44 -66
77 -91 97 -74 8 7 45 67 83 133 37 66 77 130 89 142 11 11 23 29 27 39 9 24
-3 77 -17 77 -6 0 -47 -14 -90 -31 -43 -17 -88 -28 -100 -25 -29 7 -106 65
-106 79 1 7 24 37 52 67 27 30 47 46 43 35 -3 -11 -12 -40 -18 -63 -10 -39
-10 -45 8 -58 40 -29 154 -4 177 39 10 19 4 28 -57 84 l-69 63 40 0 c30 0 53
-8 82 -30 78 -56 105 -39 176 111 68 143 65 196 -11 150z m-1253 -591 c0 -6
-20 -10 -45 -10 -51 0 -59 13 -17 28 28 10 62 0 62 -18z"/>
<path d="M4513 7703 c-27 -27 -71 -75 -99 -106 -47 -51 -54 -56 -107 -62 -69
-9 -78 -21 -67 -91 12 -71 32 -114 75 -154 20 -19 47 -57 60 -85 24 -54 132
-165 160 -165 25 0 63 44 74 87 18 67 29 167 21 189 -5 12 -27 29 -50 38 -41
16 -42 17 -26 39 37 51 49 86 54 150 4 59 2 72 -17 98 -15 20 -21 41 -20 64 2
19 0 37 -4 41 -4 4 -28 -15 -54 -43z"/>
<path d="M3845 7604 c-47 -24 -132 -93 -151 -121 -15 -24 -15 -27 -1 -38 9 -6
19 -24 23 -39 6 -24 11 -27 35 -24 16 3 29 2 29 -1 0 -3 -15 -21 -34 -41 -40
-42 -56 -86 -56 -155 0 -62 32 -102 73 -91 36 9 128 81 240 188 94 91 97 96
97 138 0 51 -30 100 -90 149 -66 53 -112 63 -165 35z"/>
<path d="M3475 7386 c-19 -28 -65 -49 -170 -76 -98 -25 -161 -56 -189 -93 -21
-28 -21 -28 9 -100 6 -13 -1 -20 -31 -33 -68 -28 -118 -87 -134 -161 -10 -41
18 -86 119 -197 40 -44 79 -92 87 -108 12 -22 21 -28 48 -28 27 0 42 9 73 43
76 83 116 174 117 267 l1 55 47 -2 c61 -3 98 11 98 37 0 12 12 33 26 47 18 18
24 32 19 47 -21 70 -22 93 -8 189 15 101 15 101 -7 119 -33 26 -86 24 -105 -6z"/>
<path d="M4110 7233 c-79 -53 -203 -160 -216 -185 -11 -21 -14 -42 -9 -67 10
-54 75 -171 102 -184 17 -8 23 -18 23 -43 0 -50 9 -64 41 -64 23 0 50 20 126
92 179 167 213 201 213 207 0 4 -18 25 -40 46 -22 21 -40 44 -40 51 0 19 -140
164 -159 164 -9 0 -28 -8 -41 -17z"/>
<path d="M2504 7091 c-61 -28 -85 -57 -72 -87 15 -33 96 -94 125 -94 12 0 41
16 63 36 47 43 51 74 17 125 -28 42 -72 48 -133 20z"/>
<path d="M1839 7029 c-83 -60 -204 -191 -217 -234 -13 -46 -34 -186 -29 -192
6 -5 130 172 144 206 17 41 0 48 -31 14 -18 -19 -26 -23 -26 -13 0 25 27 56
61 70 34 14 49 4 49 -32 0 -25 8 -22 37 13 14 16 32 28 39 25 17 -6 47 73 48
127 1 54 -16 57 -75 16z"/>
<path d="M3652 6957 c-6 -7 -21 -43 -32 -80 -11 -37 -29 -72 -41 -80 -12 -9
-17 -20 -13 -30 4 -12 -1 -20 -18 -26 -50 -19 -178 -197 -178 -247 0 -11 14
-42 31 -68 25 -37 30 -53 25 -78 -5 -24 -2 -34 14 -45 15 -11 20 -25 20 -59 0
-24 -4 -44 -9 -44 -5 0 -30 20 -55 45 -26 25 -53 45 -61 45 -7 0 -47 36 -88
81 l-74 80 -114 -132 c-172 -199 -169 -195 -169 -253 1 -64 22 -126 52 -149
13 -9 64 -47 113 -84 50 -37 127 -95 173 -129 98 -74 114 -81 144 -60 39 27
168 159 189 193 20 32 28 126 14 174 -10 37 -27 69 -37 69 -5 0 -6 -5 -3 -10
4 -6 4 -18 1 -27 -5 -12 -9 -13 -21 -3 -23 19 -18 56 11 75 23 15 25 21 19 56
-9 50 5 72 96 161 75 72 89 98 89 159 0 27 4 39 15 39 7 0 18 8 24 18 9 15 14
13 50 -22 39 -38 42 -39 67 -26 27 15 74 65 74 80 0 5 -23 39 -52 77 -48 62
-97 159 -98 191 0 23 -38 87 -58 99 -34 20 -87 26 -100 10z"/>
<path d="M2333 6938 c-4 -7 -14 -26 -23 -43 -12 -24 -21 -29 -43 -27 -35 4
-101 -33 -118 -65 -17 -31 -3 -54 38 -65 17 -5 33 -16 36 -27 3 -11 18 -22 37
-26 l33 -7 -22 -18 c-42 -31 -17 -62 83 -100 28 -10 28 -10 22 24 -5 24 -3 35
7 39 19 7 97 160 97 189 0 30 -94 138 -120 138 -10 0 -22 -6 -27 -12z"/>
<path d="M4436 6887 c-62 -66 -209 -236 -228 -265 -9 -14 -14 -31 -10 -37 10
-17 178 -161 229 -196 63 -44 190 -62 274 -39 50 14 111 57 149 104 25 33 30
48 28 80 -3 37 -7 43 -45 61 -23 11 -49 29 -56 39 -12 17 -22 18 -95 12 -45
-4 -82 -5 -82 -1 0 3 7 20 16 38 23 43 20 76 -10 133 -30 58 -43 74 -76 97
-36 25 -48 22 -94 -26z"/>
<path d="M2699 6872 c-51 -33 -130 -115 -153 -160 -21 -40 -20 -81 1 -104 17
-19 16 -21 -32 -62 l-49 -43 36 -7 c32 -6 37 -11 40 -39 3 -29 7 -33 43 -40
25 -6 51 -5 68 2 l28 11 -7 80 c-6 70 -5 80 10 80 20 0 20 20 1 67 -19 44 -19
53 0 53 19 0 81 55 117 104 33 45 33 49 12 70 -23 24 -65 19 -115 -12z m-77
-398 c-3 -16 -8 -22 -14 -16 -5 5 -6 21 -2 37 8 33 23 15 16 -21z"/>
<path d="M1904 6747 c-30 -26 -26 -47 10 -47 28 0 61 34 53 55 -9 22 -32 19
-63 -8z"/>
<path d="M1813 6724 c-6 -16 -14 -37 -17 -47 -6 -18 18 -73 60 -137 12 -19 26
-47 29 -62 12 -46 25 -31 25 27 0 42 -7 70 -31 118 -18 34 -37 77 -44 96 l-11
34 -11 -29z"/>
<path d="M2872 6708 c-18 -39 -30 -98 -47 -232 -4 -28 -15 -70 -24 -95 -10
-25 -16 -55 -14 -66 8 -40 26 -75 38 -75 20 0 189 185 218 239 l27 48 -61 89
c-64 93 -98 134 -110 134 -4 0 -16 -19 -27 -42z"/>
<path d="M1163 6627 c-56 -53 -100 -87 -113 -87 -32 0 -58 -17 -75 -50 -8 -16
-15 -31 -15 -34 0 -2 20 -4 44 -3 30 1 50 -4 63 -16 27 -24 46 -21 83 9 48 41
116 194 108 246 -3 20 -14 12 -95 -65z"/>
<path d="M1065 6668 c-16 -12 -46 -35 -65 -51 l-34 -30 38 7 c33 6 38 5 43
-13 3 -12 11 -21 18 -21 29 0 70 77 60 111 -8 24 -23 24 -60 -3z"/>
<path d="M1477 6560 c-37 -30 -69 -86 -65 -116 l3 -27 51 41 c57 45 87 98 63
113 -20 12 -23 12 -52 -11z"/>
<path d="M4041 6463 c-35 -36 -47 -85 -32 -140 16 -59 52 -93 98 -93 21 0 45
-5 53 -10 13 -8 10 -14 -16 -41 -17 -17 -47 -34 -65 -38 l-34 -8 38 -16 c20
-9 37 -19 37 -22 0 -4 -16 -25 -35 -48 -39 -46 -50 -87 -42 -158 8 -67 22 -89
56 -89 51 0 111 79 111 147 0 31 66 189 101 243 21 33 39 68 39 76 0 22 -136
161 -185 189 -68 40 -90 41 -124 8z"/>
<path d="M1237 6430 c-32 -38 -36 -97 -12 -178 17 -57 24 -62 43 -31 9 14 19
18 33 14 20 -7 20 -6 -1 27 -16 27 -19 44 -14 98 4 48 2 70 -8 84 -14 17 -16
17 -41 -14z"/>
<path d="M952 6392 c-14 -14 -22 -40 -27 -89 -3 -37 -10 -98 -16 -135 -13 -97
-13 -108 6 -81 9 12 21 20 28 17 21 -8 67 86 67 135 0 30 4 41 15 41 19 0 19
10 1 36 -8 11 -16 36 -18 54 -4 42 -28 50 -56 22z"/>
<path d="M1400 6380 c-13 -9 -12 -13 9 -30 13 -11 29 -20 35 -20 21 0 46 24
38 37 -11 18 -64 26 -82 13z"/>
<path d="M1521 6345 c-24 -19 -52 -35 -62 -35 -28 0 -49 -28 -49 -66 0 -62 67
-55 94 10 8 18 30 48 50 66 36 33 47 60 24 60 -7 0 -33 -16 -57 -35z"/>
<path d="M1666 6305 c-23 -35 -37 -75 -27 -75 10 0 31 31 49 73 15 34 0 36
-22 2z"/>
<path d="M2290 6283 c0 -11 -5 -24 -11 -30 -16 -16 23 -25 82 -21 l44 3 -30
15 c-16 8 -30 22 -30 30 0 9 -11 16 -27 18 -22 3 -28 -1 -28 -15z"/>
<path d="M772 6213 c-23 -32 -42 -66 -42 -77 0 -11 2 -17 4 -15 13 14 86 142
83 145 -2 2 -22 -22 -45 -53z"/>
<path d="M3648 6209 c-49 -28 -42 -97 14 -144 27 -23 33 -24 40 -11 5 9 8 48
6 88 -3 64 -5 73 -23 75 -11 2 -28 -2 -37 -8z"/>
<path d="M1617 6188 c-14 -7 -16 -18 -11 -63 6 -45 4 -56 -10 -61 -20 -8 -21
-33 -1 -40 9 -4 23 4 35 17 l19 24 1 -47 c0 -48 0 -48 33 -48 18 0 38 5 45 12
31 31 -4 105 -58 123 -41 14 -47 27 -18 40 13 6 23 16 23 24 0 19 -37 31 -58
19z"/>
<path d="M4496 6180 c-43 -13 -64 -37 -71 -83 -5 -29 -17 -50 -41 -71 -37 -32
-49 -74 -36 -121 8 -28 26 -44 103 -90 107 -63 104 -60 104 -96 0 -32 -2 -34
-33 -32 -18 0 -71 18 -118 38 -47 20 -92 34 -100 31 -34 -13 -7 -78 109 -260
31 -49 57 -93 57 -98 0 -48 -152 96 -199 189 -17 34 -40 67 -50 73 -11 5 -59
10 -107 10 l-88 0 22 -20 c12 -12 22 -32 22 -45 0 -19 7 -26 28 -30 56 -12 97
-39 100 -67 3 -27 1 -28 -38 -28 -29 0 -42 -5 -47 -17 -7 -19 17 -68 35 -68 7
0 29 -19 51 -42 l39 -43 35 15 c36 15 92 11 103 -7 3 -5 -8 -29 -25 -55 -17
-26 -31 -50 -31 -54 0 -20 43 -37 80 -32 36 5 39 4 45 -23 21 -95 54 -136 81
-100 8 11 14 42 14 70 0 30 6 56 15 66 13 14 12 21 -11 64 -42 78 -9 104 34
27 43 -76 67 -61 75 49 3 41 18 110 33 153 l26 79 -54 56 c-31 32 -58 64 -61
74 -10 29 17 50 71 56 46 4 53 8 59 31 9 38 -25 310 -45 351 -14 30 -25 37
-67 47 -60 13 -81 14 -119 3z"/>
<path d="M2639 6168 c0 -2 -2 -12 -3 -24 -1 -11 -14 -36 -28 -55 -48 -64 -59
-98 -70 -219 -11 -110 -10 -121 6 -139 14 -16 17 -29 11 -63 l-7 -43 38 37
c22 20 51 41 66 47 86 32 133 212 93 349 -18 59 -58 112 -86 112 -10 0 -19 -1
-20 -2z"/>
<path d="M1850 5990 c0 -22 8 -57 17 -78 l17 -37 4 29 c4 32 -15 113 -29 122
-5 3 -9 -13 -9 -36z"/>
<path d="M1920 5995 c0 -2 9 -28 20 -56 23 -56 44 -152 54 -239 l6 -55 -48 88
-49 88 -6 -98 c-4 -54 -7 -123 -7 -153 0 -30 -5 -62 -10 -70 -20 -31 -31 11
-24 97 12 159 -18 255 -82 261 -40 4 -51 -20 -64 -138 -6 -49 -19 -113 -31
-141 -26 -66 -18 -75 86 -100 42 -10 83 -23 90 -29 33 -27 -18 -64 -104 -76
-68 -9 -113 -39 -126 -86 -14 -50 -39 -74 -96 -93 l-49 -17 41 -49 c73 -87 89
-94 202 -91 62 2 97 -1 97 -7 0 -6 -12 -13 -27 -16 -76 -16 -104 -28 -127 -56
-30 -35 -32 -56 -10 -87 17 -25 19 -23 -51 -38 -30 -7 -41 -14 -43 -31 -4 -24
39 -53 80 -53 21 0 20 -2 -10 -20 -32 -19 -32 -21 -26 -74 5 -44 3 -58 -14
-82 -11 -16 -23 -50 -26 -77 -7 -55 -28 -102 -51 -111 -8 -3 -51 -9 -95 -12
-70 -6 -80 -9 -80 -26 0 -30 54 -78 87 -78 15 0 35 -4 43 -10 21 -13 -3 -21
-92 -29 -55 -4 -73 -10 -73 -21 0 -10 17 -19 47 -27 57 -14 68 -20 68 -39 0
-9 -10 -14 -29 -14 -15 0 -41 -10 -56 -22 -26 -21 -27 -24 -20 -82 7 -53 9
-134 5 -208 -1 -13 2 -48 6 -79 5 -42 1 -79 -16 -145 -13 -54 -22 -119 -21
-166 0 -70 -2 -78 -25 -92 -13 -9 -24 -25 -24 -36 0 -33 -14 -22 -38 31 -13
27 -35 57 -48 66 -22 14 -26 14 -43 -1 -24 -22 -31 -20 -31 8 0 26 -23 51 -39
42 -5 -4 -12 -20 -16 -37 -4 -17 -13 -33 -21 -36 -8 -3 -14 -11 -14 -18 0 -17
63 -72 106 -93 39 -18 42 -32 13 -58 -21 -19 -22 -19 -15 4 l8 23 -33 -20
c-31 -19 -35 -19 -57 -5 -13 8 -35 14 -50 12 -24 -3 -27 -7 -27 -40 -1 -20 -8
-45 -18 -56 -21 -23 -22 -51 -1 -80 21 -30 51 -28 107 8 52 33 58 53 25 81
-13 10 -17 18 -11 19 23 0 53 -39 53 -70 0 -84 62 -139 101 -89 10 13 18 20
18 14 0 -17 -24 -104 -30 -110 -3 -3 -22 2 -42 10 -56 23 -113 20 -142 -10
-27 -26 -31 -46 -15 -76 16 -29 56 -24 82 11 24 32 53 38 83 16 24 -17 13 -46
-18 -46 -23 0 -47 -16 -47 -33 0 -4 15 -14 34 -22 30 -13 36 -21 41 -57 7 -48
-7 -123 -32 -172 -9 -17 -36 -53 -59 -80 -48 -53 -55 -71 -24 -63 25 6 40 -18
40 -67 0 -49 -18 -83 -52 -97 -57 -23 -77 -89 -38 -124 15 -14 20 -31 20 -72
0 -74 -21 -123 -54 -123 -30 0 -33 15 -9 42 15 17 15 18 -4 18 -11 0 -28 -9
-38 -19 -9 -11 -33 -21 -54 -23 -34 -3 -36 -5 -39 -40 -3 -38 -3 -38 33 -38
20 0 43 -7 51 -15 9 -8 26 -15 40 -15 17 0 27 -8 35 -26 5 -15 14 -124 19
-243 17 -381 16 -377 81 -386 102 -14 138 -84 84 -163 l-25 -37 24 -18 c14
-10 23 -24 20 -31 -3 -8 6 -25 19 -38 13 -13 43 -61 67 -106 23 -45 47 -82 52
-82 13 0 3 41 -38 169 -71 222 -76 283 -56 776 13 321 18 376 35 386 7 5 6 70
-3 196 -15 216 -8 529 13 613 7 30 21 67 31 82 12 19 16 36 11 56 -5 24 -2 30
15 35 20 5 37 37 73 137 9 25 37 70 62 100 35 42 51 75 71 140 56 193 86 274
163 450 45 101 86 201 91 221 13 46 83 145 233 327 126 154 170 215 182 251 9
31 81 108 116 127 18 9 59 14 114 14 75 0 92 3 131 26 l45 26 95 -46 c59 -28
94 -51 92 -58 -8 -23 -109 -99 -139 -105 -33 -6 -54 -27 -44 -44 13 -21 84 -2
155 41 38 23 92 48 121 55 28 8 77 29 108 48 72 44 105 54 221 67 143 16 319
63 440 117 67 30 157 41 200 23 41 -17 80 -65 80 -100 0 -16 5 -41 11 -57 10
-27 11 -28 26 -8 10 14 13 38 11 84 l-4 64 -72 66 c-100 91 -97 115 7 49 25
-15 53 -28 64 -28 18 0 18 1 0 31 -10 18 -40 50 -68 71 -46 37 -53 40 -100 35
-27 -2 -57 -6 -65 -8 -13 -3 -15 19 -15 157 l0 161 -30 43 -30 43 0 159 c0 87
-2 158 -5 158 -19 -1 -138 -113 -152 -142 -10 -20 -29 -45 -44 -55 -60 -42
-92 -74 -109 -113 -10 -22 -21 -40 -24 -40 -3 0 -15 17 -26 37 -22 41 -60 71
-185 145 -130 77 -196 108 -230 108 -27 0 -36 -9 -76 -70 -67 -104 -113 -207
-130 -294 -19 -91 -14 -121 21 -130 18 -5 27 -15 32 -37 11 -55 69 -76 108
-39 46 43 203 48 294 9 24 -11 52 -19 63 -19 34 0 105 57 124 100 23 52 56 54
103 6 48 -49 40 -70 -29 -76 -61 -6 -103 -25 -138 -63 l-24 -25 22 -22 c15
-15 20 -31 18 -53 -3 -31 -4 -32 -63 -37 -72 -6 -113 -30 -121 -69 -7 -35 -39
-51 -103 -51 -30 0 -65 -9 -95 -24 l-48 -24 6 33 c11 59 -50 165 -96 165 -27
0 -22 -25 17 -102 20 -37 34 -68 32 -68 -2 0 -28 13 -58 30 -68 37 -85 38 -94
3 -10 -42 -24 -53 -64 -52 -82 1 -207 79 -286 180 -59 75 -127 203 -159 299
-13 41 -50 174 -81 295 -76 300 -101 375 -126 375 -10 0 -19 -2 -19 -5z m1017
-620 c-12 -65 -15 -70 -37 -68 -14 1 -43 9 -65 19 l-40 17 32 9 c30 8 112 88
114 112 1 6 3 4 5 -4 3 -8 -2 -46 -9 -85z m594 -175 c11 -6 19 -21 19 -35 0
-20 -5 -25 -25 -25 -31 0 -52 34 -34 56 14 17 15 17 40 4z m-1735 -55 c7 -16
-21 -65 -36 -65 -15 0 -43 49 -36 65 3 9 18 15 36 15 18 0 33 -6 36 -15z
m-556 -1972 c0 -12 -4 -25 -10 -28 -6 -4 -10 11 -10 37 0 31 3 39 10 28 5 -8
10 -25 10 -37z m-150 -1110 c0 -14 -6 -23 -15 -23 -17 0 -30 42 -21 67 6 14 8
14 21 -3 8 -10 15 -29 15 -41z"/>
<path d="M3690 5975 c0 -9 8 -30 17 -48 14 -26 18 -28 21 -14 4 22 -16 77 -29
77 -5 0 -9 -7 -9 -15z"/>
<path d="M3751 5695 c1 -40 1 -40 11 -12 7 21 7 32 -1 40 -8 8 -11 0 -10 -28z"/>
<path d="M1578 5658 c-32 -43 -51 -78 -44 -85 8 -8 26 7 57 49 46 65 34 98
-13 36z"/>
<path d="M3860 5669 c0 -23 36 -70 58 -76 46 -11 42 12 -8 50 -28 21 -50 32
-50 26z"/>
<path d="M683 5615 c0 -27 2 -38 4 -22 2 15 2 37 0 50 -2 12 -4 0 -4 -28z"/>
<path d="M2390 5504 c-13 -34 1 -118 29 -173 27 -52 66 -81 107 -81 38 0 39 2
22 33 -7 12 -15 58 -18 102 l-5 80 -63 33 -62 33 -10 -27z"/>
<path d="M1436 5454 c-3 -9 -6 -27 -6 -40 0 -31 -6 -30 -34 3 -21 24 -27 26
-48 16 -14 -6 -39 -30 -57 -52 -28 -35 -30 -41 -14 -41 10 0 27 -7 37 -15 11
-8 41 -15 67 -15 27 0 49 -5 51 -12 9 -26 132 38 163 86 21 31 14 43 -39 67
-52 23 -112 25 -120 3z"/>
<path d="M2287 5453 c-15 -15 5 -93 23 -93 10 0 18 59 12 82 -4 18 -23 24 -35
11z"/>
<path d="M865 5379 c-4 -12 -2 -26 4 -32 8 -8 11 -2 11 21 0 37 -6 41 -15 11z"/>
<path d="M3990 5262 c0 -15 -9 -46 -20 -67 -12 -22 -21 -52 -22 -67 -1 -34 30
-84 44 -70 32 32 38 232 7 232 -5 0 -9 -13 -9 -28z"/>
<path d="M713 5200 c0 -47 2 -66 4 -42 2 23 2 61 0 85 -2 23 -4 4 -4 -43z"/>
<path d="M1225 5226 l-40 -13 37 -36 c42 -43 70 -46 103 -12 36 35 32 49 -11
42 -31 -5 -34 -4 -29 14 7 22 -1 23 -60 5z"/>
<path d="M786 5188 c-3 -12 -13 -189 -21 -393 -20 -506 -44 -647 -112 -678
-28 -12 -38 -44 -29 -91 5 -25 1 -43 -13 -67 -18 -32 -71 -265 -71 -315 0 -38
17 -36 49 3 70 85 153 281 166 390 8 73 30 107 81 123 30 10 38 9 54 -5 17
-16 18 -14 25 22 7 42 -8 316 -26 473 -6 52 -26 178 -45 280 -19 101 -34 200
-34 220 0 47 -15 70 -24 38z"/>
<path d="M4133 5161 c6 -54 41 -144 62 -161 26 -22 23 8 -6 68 -17 34 -33 80
-36 102 -3 22 -10 40 -16 40 -6 0 -8 -19 -4 -49z"/>
<path d="M2618 5163 c-35 -38 -49 -68 -42 -88 12 -30 48 -13 72 35 38 77 21
108 -30 53z"/>
<path d="M2941 5124 c-22 -28 -35 -77 -29 -115 3 -27 33 -44 93 -53 39 -6 42
-5 120 68 44 41 77 77 75 79 -7 7 -196 47 -219 47 -11 0 -29 -12 -40 -26z"/>
<path d="M1375 5114 c-23 -24 -15 -47 21 -59 l31 -10 -24 -19 c-79 -59 -55
-216 24 -159 60 43 79 53 99 53 28 0 47 24 39 49 -17 54 -124 161 -161 161 -7
0 -20 -7 -29 -16z"/>
<path d="M1113 5065 c-3 -9 -2 -19 1 -23 8 -8 38 10 44 26 6 18 -38 14 -45 -3z"/>
<path d="M1233 5028 c-17 -21 -21 -42 -11 -60 13 -26 37 -22 44 6 12 47 -10
83 -33 54z"/>
<path d="M1065 4926 c4 -38 11 -79 15 -90 7 -18 9 -16 15 17 9 45 0 97 -21
123 -14 17 -15 13 -9 -50z"/>
<path d="M2527 4983 c-13 -12 -7 -68 9 -91 8 -12 24 -22 34 -22 17 0 19 5 13
33 -11 61 -38 99 -56 80z"/>
<path d="M978 4962 c-3 -9 -1 -26 3 -37 6 -15 8 -11 8 18 1 40 -4 48 -11 19z"/>
<path d="M1233 4850 c-17 -7 -23 -18 -23 -38 0 -16 -9 -41 -21 -56 -40 -50 1
-105 62 -84 26 9 49 44 49 74 0 8 12 26 27 40 l28 26 -28 24 c-29 25 -56 29
-94 14z"/>
<path d="M1394 4796 c-28 -20 -48 -69 -40 -100 9 -37 186 -138 186 -107 0 6
-9 15 -20 21 -13 7 -20 21 -20 40 0 17 -3 30 -7 30 -5 0 -17 7 -28 16 -15 11
-20 27 -20 62 0 52 -15 63 -51 38z"/>
<path d="M4200 4721 c-17 -33 -11 -48 10 -22 11 13 20 27 20 32 0 16 -19 9
-30 -10z"/>
<path d="M974 4675 c-3 -14 -3 -33 1 -42 6 -16 8 -15 20 7 8 14 14 33 15 43 0
26 -29 20 -36 -8z"/>
<path d="M706 4663 c-17 -56 -62 -471 -52 -481 3 -2 11 8 17 24 28 71 40 150
46 307 5 154 3 194 -11 150z"/>
<path d="M1088 4633 c-3 -68 19 -133 47 -133 21 0 19 39 -6 105 -22 60 -38 71
-41 28z"/>
<path d="M1261 4594 c-33 -27 -41 -61 -16 -70 15 -6 132 20 144 31 9 10 -57
65 -78 65 -11 0 -33 -12 -50 -26z"/>
<path d="M3973 4540 c0 -25 2 -35 4 -22 2 12 2 32 0 45 -2 12 -4 2 -4 -23z"/>
<path d="M1450 4530 c-14 -9 -6 -55 12 -77 16 -20 45 -15 62 9 13 19 14 25 2
42 -15 23 -58 37 -76 26z"/>
<path d="M1315 4479 c-8 -12 -9 -12 32 -33 60 -30 98 -12 55 27 -21 19 -77 23
-87 6z"/>
<path d="M4110 4382 c0 -27 3 -64 6 -81 6 -26 11 -31 36 -31 34 0 78 39 78 70
0 33 -19 60 -41 60 -11 0 -33 7 -49 15 l-30 16 0 -49z"/>
<path d="M3973 4345 c0 -33 2 -45 4 -27 2 18 2 45 0 60 -2 15 -4 0 -4 -33z"/>
<path d="M1057 4383 c-12 -11 -7 -40 9 -53 12 -11 18 -11 29 1 13 13 13 17 -1
37 -16 23 -26 27 -37 15z"/>
<path d="M1224 4306 c-10 -25 0 -61 18 -64 12 -2 19 5 24 22 10 39 -29 77 -42
42z"/>
<path d="M984 4286 c3 -13 15 -45 26 -71 17 -40 23 -45 35 -35 24 20 19 77
-10 105 -32 33 -59 33 -51 1z"/>
<path d="M4156 4194 c-27 -7 -53 -19 -58 -26 -4 -7 -8 -41 -8 -75 0 -59 1 -63
26 -69 38 -10 98 12 114 41 11 20 11 33 1 65 -7 23 -9 50 -6 60 7 23 1 23 -69
4z"/>
<path d="M962 4091 c-18 -57 -15 -74 17 -105 35 -33 67 -32 63 4 -3 29 -52
140 -62 140 -4 0 -12 -17 -18 -39z"/>
<path d="M1166 4084 c-8 -21 -8 -119 0 -127 10 -9 42 11 54 33 8 15 7 29 -6
55 -21 45 -40 61 -48 39z"/>
<path d="M3973 3985 c0 -38 2 -53 4 -32 2 20 2 52 0 70 -2 17 -4 1 -4 -38z"/>
<path d="M981 3869 c-14 -41 -14 -109 0 -109 15 0 39 64 39 105 0 45 -24 47
-39 4z"/>
<path d="M4110 3811 c-10 -20 -14 -131 -4 -131 3 0 13 7 22 16 11 12 28 15 63
12 59 -6 74 2 65 35 -4 18 -15 27 -35 32 -16 3 -37 17 -45 31 -20 29 -51 31
-66 5z"/>
<path d="M1160 3715 c0 -6 77 -45 90 -45 15 0 12 16 -6 34 -14 14 -84 23 -84
11z"/>
<path d="M936 3683 c-8 -16 -40 -59 -71 -98 -53 -64 -85 -119 -85 -145 0 -26
41 -50 84 -50 60 0 73 16 81 97 8 79 22 140 34 148 5 3 9 -10 9 -29 0 -62 23
-75 41 -25 18 52 14 107 -8 119 -36 19 -69 12 -85 -17z"/>
<path d="M758 3563 c-44 -82 -61 -123 -49 -123 12 0 94 165 90 179 -3 7 -21
-19 -41 -56z"/>
<path d="M1160 3557 c0 -20 33 -47 58 -47 27 0 28 21 4 43 -22 20 -62 22 -62
4z"/>
<path d="M4162 3448 c-45 -49 -81 -168 -50 -168 20 0 75 43 92 71 19 32 21 90
4 107 -16 16 -21 15 -46 -10z"/>
<path d="M671 3363 c-15 -38 -28 -137 -36 -263 -15 -241 -58 -453 -96 -465
-19 -6 -29 -34 -29 -87 0 -59 -26 -154 -110 -414 -106 -323 -148 -486 -120
-469 5 3 10 19 10 35 0 32 19 80 31 80 5 0 13 19 20 43 14 53 64 214 119 382
41 125 101 281 133 340 13 27 15 27 21 8 12 -38 36 -188 36 -227 0 -35 -2 -38
-23 -32 -21 5 -24 2 -24 -24 0 -20 -17 -52 -55 -102 -86 -113 -94 -139 -62
-200 15 -29 15 -32 -1 -40 -39 -23 -132 -291 -179 -519 -26 -126 -34 -239 -17
-239 13 0 43 69 37 86 -3 8 -1 14 5 14 5 0 14 -12 20 -27 15 -39 -2 -127 -42
-213 -34 -73 -33 -88 6 -135 l24 -30 1 56 c0 60 14 86 37 68 7 -7 13 -16 13
-22 0 -5 12 -26 28 -46 23 -31 27 -46 27 -100 0 -68 -4 -74 -58 -86 -15 -3
-27 -10 -27 -16 0 -6 5 -7 11 -4 5 4 19 -1 29 -10 23 -21 48 -9 86 41 42 54
43 113 5 208 -27 68 -30 82 -21 121 5 24 24 135 41 247 42 278 65 383 101 452
19 37 39 103 53 175 27 134 57 221 85 246 11 10 20 28 20 41 0 38 10 53 56 85
27 18 44 38 44 49 0 20 18 25 64 20 22 -2 36 16 36 48 0 22 -23 31 -35 12 -3
-5 -15 -15 -26 -21 -19 -10 -20 -8 -14 23 16 85 -59 460 -141 705 -30 89 -54
178 -54 197 0 43 -13 47 -29 9z m53 -355 c3 -13 6 -55 6 -94 0 -121 9 -164 38
-177 24 -11 25 -13 18 -96 -8 -107 -22 -131 -77 -131 -45 0 -45 -1 9 69 24 32
32 52 30 74 -4 36 -19 44 -41 22 -9 -8 -19 -15 -22 -15 -9 0 0 317 10 348 4
12 11 22 15 22 4 0 10 -10 14 -22z m-28 -853 c10 -26 -6 -38 -27 -19 -10 9
-16 21 -13 25 8 14 34 10 40 -6z m-106 -34 c0 -17 -35 -49 -62 -55 -42 -9 -42
10 -1 38 38 27 63 33 63 17z"/>
<path d="M845 3308 c-13 -35 -9 -106 5 -92 16 16 25 104 11 104 -6 0 -14 -6
-16 -12z"/>
<path d="M3910 3275 c0 -22 4 -34 10 -30 6 3 10 17 10 30 0 13 -4 27 -10 30
-6 4 -10 -8 -10 -30z"/>
<path d="M980 2674 c-11 -12 -11 -18 2 -30 13 -13 17 -13 38 4 13 11 20 24 16
30 -10 17 -41 15 -56 -4z"/>
<path d="M1013 2573 c-7 -2 -13 -13 -13 -24 0 -23 41 -26 60 -4 21 26 -9 44
-47 28z"/>
<path d="M4046 2541 c-10 -16 5 -41 24 -41 19 0 30 17 23 38 -5 14 -39 16 -47
3z"/>
<path d="M987 2313 c-4 -3 -7 -19 -7 -33 0 -54 62 -69 68 -17 2 16 -2 35 -9
43 -12 15 -41 19 -52 7z"/>
<path d="M198 1493 c-19 -21 -24 -53 -8 -53 13 0 32 38 28 57 -3 13 -6 12 -20
-4z"/>
<path d="M3751 1400 c0 -33 1 -34 10 -11 6 16 6 28 -1 35 -7 7 -10 -1 -9 -24z"/>
<path d="M895 1390 c-3 -16 -2 -37 4 -47 8 -14 10 -8 11 30 0 54 -5 60 -15 17z"/>
<path d="M3720 1240 c0 -18 4 -29 10 -25 6 3 10 15 10 25 0 10 -4 22 -10 25
-6 4 -10 -7 -10 -25z"/>
<path d="M86 1023 c-52 -80 -100 -269 -76 -298 14 -17 76 -20 85 -4 8 12 -23
49 -41 49 -26 0 -25 22 4 55 20 22 34 53 42 92 18 87 27 106 50 100 27 -7 25
8 -2 27 -31 22 -35 21 -62 -21z"/>
<path d="M130 871 c0 -22 25 -39 38 -27 8 8 -10 38 -26 44 -7 2 -12 -6 -12
-17z"/>
<path d="M1307 582 c-24 -26 -21 -43 11 -68 l27 -23 -37 -38 c-38 -39 -50 -73
-25 -73 25 0 84 49 101 83 19 41 21 108 4 125 -18 18 -63 14 -81 -6z"/>
<path d="M4653 425 c0 -27 2 -38 4 -22 2 15 2 37 0 50 -2 12 -4 0 -4 -28z"/>
<path d="M1062 408 c-16 -16 -15 -23 4 -42 20 -21 48 -20 69 0 14 14 14 19 3
29 -20 19 -63 26 -76 13z"/>
<path d="M4943 308 c-27 -13 -29 -23 -8 -32 26 -10 16 -31 -30 -66 -25 -19
-45 -35 -45 -37 0 -1 28 -2 62 -1 40 1 63 -2 66 -10 2 -7 7 -12 12 -12 10 0
23 131 14 153 -7 19 -38 21 -71 5z"/>
<path d="M3752 49 c6 -17 59 -26 113 -19 55 7 31 19 -51 27 -55 5 -66 4 -62
-8z"/>
</g>
</svg>
